<svg xmlns="http://www.w3.org/2000/svg" width="207.854" height="100.275" viewBox="0 0 207.854 100.275">
  <g id="Group_4" data-name="Group 4" transform="translate(-320.995 -1123)">
    <path id="Path_1" data-name="Path 1" d="M677.969,356.876h-8.48v15.647h8.48Zm7.02,20.931H662.42V351.2h18.549q4.015,0,4.02,4.069v22.539Z" transform="translate(-257.464 789.447)" fill="#fff"/>
    <rect id="Rectangle_29" data-name="Rectangle 29" width="7.069" height="15.647" transform="translate(431.976 1140.637)" fill="#fff"/>
    <path id="Path_2" data-name="Path 2" d="M722.537,356.876H719.39v20.931H712.4V356.876H700.39V351.19h22.147Z" transform="translate(-258.208 789.447)" fill="#fff"/>
    <rect id="Rectangle_30" data-name="Rectangle 30" width="7.069" height="15.647" transform="translate(467.77 1140.637)" fill="#fff"/>
    <path id="Path_3" data-name="Path 3" d="M761.29,377.808H754.25V356.876H746.79v18.03a3.018,3.018,0,0,1-.794,1.961,2.67,2.67,0,0,1-2.157.941H736.27v-5.676h3.5V351.2h17.98q3.544,0,3.549,3.745v22.863Z" transform="translate(-258.912 789.447)" fill="#fff"/>
    <path id="Path_4" data-name="Path 4" d="M788.324,368.975q0,4.485-1.735,6.549-1.912,2.279-6.353,2.284H765.01v-5.676h4.735l-3.52-20.931h7.118l3.294,20.931h4.735V351.2h6.941v17.775Z" transform="translate(-259.475 789.447)" fill="#fff"/>
    <path id="Path_5" data-name="Path 5" d="M647.47,402.064h5.765l-2.892-9.3Zm7.314,5h-8.863l-1.549,5.01H637.46L647.3,385.24h6.078l9.912,26.833h-6.951Z" transform="translate(-256.975 788.78)" fill="#fff"/>
    <path id="Path_6" data-name="Path 6" d="M684.591,390.24h-8.059v21.833h-6.471V390.24h-7.9v-5h22.431Z" transform="translate(-257.459 788.78)" fill="#fff"/>
    <rect id="Rectangle_31" data-name="Rectangle 31" width="6.451" height="26.833" transform="translate(430.299 1174.02)" fill="#fff"/>
    <path id="Path_7" data-name="Path 7" d="M705.9,390.24V407.1h2.245a5.019,5.019,0,0,0,4.275-1.98c1-1.324,1.49-3.284,1.49-5.892v-1.157a9.678,9.678,0,0,0-1.49-5.863,5.125,5.125,0,0,0-4.353-1.971Zm-6.471,21.833V385.24h8.647a12.764,12.764,0,0,1,6.392,1.608A11.314,11.314,0,0,1,718.9,391.4a13.883,13.883,0,0,1,1.618,6.588v1.235a13.816,13.816,0,0,1-1.559,6.608,11.367,11.367,0,0,1-4.382,4.569,12.418,12.418,0,0,1-6.314,1.667H699.43Z" transform="translate(-258.189 788.78)" fill="#fff"/>
    <rect id="Rectangle_32" data-name="Rectangle 32" width="6.451" height="26.833" transform="translate(466.084 1174.02)" fill="#fff"/>
    <path id="Path_8" data-name="Path 8" d="M744.44,385.24l5.98,18.667,5.98-18.667h8.51v26.833h-6.49v-6.265l.627-12.824-6.48,19.088h-4.284l-6.5-19.108.627,12.843v6.265H735.94V385.24Z" transform="translate(-258.905 788.78)" fill="#fff"/>
    <path id="Path_9" data-name="Path 9" d="M617.139,351.809c-1.608-1.5-3.588-1.5-5.647-1.039.52-3.627,3.4-6.02,6.843-5.343a5.634,5.634,0,0,0,6.069-2.1c4.216-4.833,10.029-6.882,16.147-7.951,3.627-.637,7.343-.775,11.029-1.137.039.147.069.284.108.431-.98.52-1.99,1-2.941,1.569-5.951,3.559-9.51,8.647-8.941,15.735a16.828,16.828,0,0,0,2.745,7.755c2.951,4.3,6.5,8.206,9.814,12.265.716.882,1.51,1.7,1.922,2.147-3.716-2.059-7.745-4.529-11.99-6.569a38.35,38.35,0,0,0-15.363-4.245c-6.735-.206-11.9,2.284-15.03,8.451a23.911,23.911,0,0,1-2.323,4.118,76.245,76.245,0,0,1,.873-8.216,45.105,45.105,0,0,1,2.667-8.235c1.1-2.588,2.618-5.01,4.02-7.637" transform="translate(-256.428 789.78)" fill="#289bd7"/>
    <path id="Path_10" data-name="Path 10" d="M602.454,377.974c-1.451-1.353-3.226-1.353-5.078-.941.471-3.265,3.059-5.422,6.157-4.814a5.063,5.063,0,0,0,5.461-1.882c3.794-4.353,9.02-6.2,14.52-7.157,3.265-.569,6.608-.7,9.922-1.02.029.127.069.255.1.382-.882.471-1.794.9-2.647,1.412-5.353,3.2-8.559,7.775-8.039,14.157a15.077,15.077,0,0,0,2.471,6.971c2.657,3.873,5.843,7.382,8.824,11.029.647.794,1.363,1.529,1.725,1.931-3.343-1.843-6.971-4.078-10.784-5.9a34.183,34.183,0,0,0-13.814-3.814c-6.059-.186-10.706,2.059-13.51,7.6a21.15,21.15,0,0,1-2.1,3.706,67.958,67.958,0,0,1,.784-7.382,41.355,41.355,0,0,1,2.392-7.412c.99-2.324,2.363-4.5,3.618-6.863" transform="translate(-256.155 789.232)" fill="#f8b000"/>
    <path id="Path_11" data-name="Path 11" d="M583.329,357.269c-2.01-1.52-4.255-1.284-6.549-.51.167-4.2,3.157-7.255,7.147-6.892a6.447,6.447,0,0,0,6.657-3.108c4.226-6,10.588-9.02,17.412-10.961,4.059-1.157,8.265-1.755,12.4-2.6.059.157.118.314.176.48-1.059.706-2.147,1.373-3.167,2.137-6.343,4.755-9.794,10.961-8.294,18.961a19.029,19.029,0,0,0,4.049,8.49c3.873,4.549,8.363,8.569,12.618,12.784.922.912,1.922,1.755,2.431,2.216-4.471-1.892-9.353-4.235-14.422-6.039-5.775-2.059-11.726-3.461-17.971-3-7.686.569-13.265,4.02-16.078,11.392a26.71,26.71,0,0,1-2.157,4.961,84.225,84.225,0,0,1,.02-9.441,52.889,52.889,0,0,1,2.049-9.686c.951-3.1,2.392-6.029,3.677-9.186" transform="translate(-255.785 789.8)" fill="#015275"/>
    <path id="Path_12" data-name="Path 12" d="M640.279,435.182h-1.51a4,4,0,0,1-1.157-.147,1.791,1.791,0,0,1-.794-.471,1.97,1.97,0,0,1-.461-.8,4.072,4.072,0,0,1-.147-1.167v-9.716a2.73,2.73,0,0,1,.6-1.961,2.632,2.632,0,0,1,1.951-.627h1.51v1.373h-2.441v12.157h2.441v1.363Z" transform="translate(-256.95 788.093)" fill="#fff"/>
    <path id="Path_13" data-name="Path 13" d="M649.224,432.688h-1.677v-7.676H642.44V423.59h5.471a1.147,1.147,0,0,1,1.314,1.284Z" transform="translate(-257.072 788.028)" fill="#fff"/>
    <path id="Path_14" data-name="Path 14" d="M656.047,423.541,655,425.972h-.559V422.08h1.608Zm-2.559,0-1.059,2.431h-.549V422.08h1.608Z" transform="translate(-257.257 788.058)" fill="#fff"/>
    <path id="Path_15" data-name="Path 15" d="M665.408,430.835a1.654,1.654,0,0,1-1.892,1.853H657.79v-1.422h2.157l-1.657-7.676h1.677l1.588,7.676h2.206V423.59h1.657v7.245Z" transform="translate(-257.373 788.028)" fill="#fff"/>
    <path id="Path_16" data-name="Path 16" d="M672.159,432.594a4.07,4.07,0,0,1-.147,1.167,1.811,1.811,0,0,1-.461.8,1.791,1.791,0,0,1-.794.471,4,4,0,0,1-1.157.147h-1.51v-1.353h2.441V421.673H668.09V420.3h1.51a2.592,2.592,0,0,1,1.951.627,2.73,2.73,0,0,1,.6,1.961v9.706Z" transform="translate(-257.575 788.092)" fill="#fff"/>
    <path id="Path_17" data-name="Path 17" d="M685.579,425.012h-4.333v6.382h4.333Zm1.686,7.676H679.54v-9.1h6.216c1.01,0,1.51.461,1.51,1.392Z" transform="translate(-257.8 788.028)" fill="#fff"/>
    <rect id="Rectangle_33" data-name="Rectangle 33" width="1.696" height="5.353" transform="translate(432.378 1211.618)" fill="#fff"/>
    <path id="Path_18" data-name="Path 18" d="M702.079,425.012h-1.186v7.676h-1.686v-7.676H694.52V423.59h7.559Z" transform="translate(-258.093 788.028)" fill="#fff"/>
    <rect id="Rectangle_34" data-name="Rectangle 34" width="1.696" height="5.353" transform="translate(446.437 1211.618)" fill="#fff"/>
    <path id="Path_19" data-name="Path 19" d="M717.4,432.688h-1.7v-7.676h-3.961V431.7a.976.976,0,0,1-.294.667,1.049,1.049,0,0,1-.814.324H708.56v-1.422h1.51V423.59h6c.892,0,1.333.422,1.333,1.284Z" transform="translate(-258.368 788.028)" fill="#fff"/>
    <path id="Path_20" data-name="Path 20" d="M727.638,430.835a1.654,1.654,0,0,1-1.892,1.853H720.02v-1.422h2.157l-1.657-7.676H722.2l1.588,7.676h2.206V423.59h1.657v7.245Z" transform="translate(-258.593 788.028)" fill="#fff"/>
    <rect id="Rectangle_35" data-name="Rectangle 35" width="1.696" height="5.353" transform="translate(475.878 1211.618)" fill="#fff"/>
    <path id="Path_21" data-name="Path 21" d="M746.449,425.012h-1.186v7.676h-1.686v-7.676h-4.7V423.59h7.569Z" transform="translate(-258.963 788.028)" fill="#fff"/>
    <rect id="Rectangle_36" data-name="Rectangle 36" width="1.696" height="5.353" transform="translate(489.937 1211.618)" fill="#fff"/>
    <path id="Path_22" data-name="Path 22" d="M760.789,425.012H759.6v7.676h-1.686v-7.676h-4.7V423.59h7.569Z" transform="translate(-259.244 788.028)" fill="#fff"/>
    <rect id="Rectangle_37" data-name="Rectangle 37" width="1.696" height="5.353" transform="translate(503.986 1211.618)" fill="#fff"/>
  </g>
</svg>
